<?xml version="1.0" standalone="no"?>
<!DOCTYPE svg PUBLIC "-//W3C//DTD SVG 20010904//EN"
 "http://www.w3.org/TR/2001/REC-SVG-20010904/DTD/svg10.dtd">
<svg version="1.0" xmlns="http://www.w3.org/2000/svg"
 width="500.000000pt" height="325.000000pt" viewBox="0 0 500.000000 325.000000"
 preserveAspectRatio="xMidYMid meet">

<g transform="translate(0.000000,325.000000) scale(0.100000,-0.100000)"
fill="#000000" stroke="none">
<path d="M0 1625 l0 -1625 2500 0 2500 0 0 1625 0 1625 -2500 0 -2500 0 0
-1625z m3323 1468 c4 -3 0 -14 -9 -24 -12 -13 -74 -150 -74 -164 0 -2 7 -6 16
-9 14 -5 15 -4 5 8 -7 9 -8 17 -2 20 5 3 12 0 15 -6 3 -7 3 -1 0 13 -6 28 9
48 21 29 9 -14 -14 -71 -34 -86 -9 -7 -10 -13 -3 -17 5 -4 8 -16 5 -27 -3 -11
-9 -18 -13 -15 -5 3 -6 -5 -2 -17 3 -13 47 -63 97 -113 80 -78 95 -98 115
-155 20 -56 35 -76 107 -146 45 -44 83 -85 83 -92 0 -6 -12 -25 -27 -43 -16
-18 -28 -40 -28 -48 0 -24 -26 -81 -37 -81 -5 0 -7 -4 -4 -9 3 -5 -1 -12 -10
-15 -10 -4 -13 -2 -9 7 4 6 1 5 -7 -3 -13 -15 -31 -22 -55 -23 -7 0 -13 -5
-13 -10 0 -5 -6 -4 -14 2 -11 9 -16 9 -22 0 -5 -8 -3 -9 6 -4 9 5 11 4 6 -4
-6 -9 -11 -9 -21 -1 -9 8 -14 6 -19 -6 -4 -9 -9 -14 -13 -11 -3 4 -13 1 -21
-6 -13 -9 -14 -9 -8 1 6 10 -12 12 -41 3 -2 -1 -6 -1 -10 -2 -5 0 -12 -4 -18
-8 -5 -4 -17 -7 -25 -6 -8 0 -18 -3 -21 -8 -3 -5 -9 -1 -12 8 -5 10 -3 14 5 9
7 -4 8 -3 4 5 -6 8 -12 9 -20 2 -8 -7 -16 -7 -23 0 -6 6 -10 5 -10 -5 0 -8 8
-13 17 -11 9 2 17 -3 17 -11 0 -10 -4 -11 -14 -3 -10 9 -13 8 -13 -2 -1 -8 -7
-3 -14 10 l-14 24 -8 -24 c-4 -13 -7 -28 -5 -34 1 -5 -1 -6 -5 -2 -12 11 -13
36 -3 43 5 3 9 11 9 17 0 7 -5 4 -11 -6 -9 -15 -13 -16 -27 -5 -15 11 -15 11
-4 -3 10 -14 9 -20 -12 -40 -22 -21 -22 -25 -10 -55 7 -17 10 -35 6 -39 -4 -5
-2 -5 5 -1 6 3 16 -2 22 -11 6 -10 11 -14 11 -9 0 5 -6 17 -13 25 -21 25 -38
71 -27 71 6 0 10 -7 10 -16 0 -8 4 -13 8 -10 5 3 8 -5 8 -17 -1 -15 4 -21 14
-19 8 2 12 0 8 -3 -4 -4 -3 -17 3 -28 8 -15 8 -18 -1 -12 -8 5 -11 3 -8 -6 3
-8 11 -13 17 -11 7 1 10 -2 6 -8 -3 -6 -11 -8 -16 -5 -5 3 -6 -2 -2 -11 5 -13
3 -15 -8 -9 -12 7 -12 6 1 -9 8 -10 15 -23 16 -30 3 -14 20 -79 29 -113 2 -10
14 -61 25 -113 27 -128 25 -123 68 -141 48 -20 76 -73 67 -127 -3 -20 -6 -43
-7 -49 -1 -7 -5 -13 -10 -13 -5 0 -6 -4 -3 -10 3 -5 2 -10 -4 -10 -6 0 -7 -7
-4 -17 4 -10 2 -14 -5 -9 -7 4 -10 0 -8 -11 2 -10 -5 -36 -16 -58 -11 -22 -17
-30 -15 -18 3 13 2 25 -3 28 -4 3 -7 -10 -6 -29 1 -19 -2 -32 -6 -30 -5 3 -8
-4 -8 -15 0 -11 -9 -36 -21 -55 -12 -20 -18 -36 -14 -36 3 0 -1 -7 -9 -16 -9
-8 -14 -20 -11 -25 4 -5 2 -9 -3 -9 -5 0 -9 -7 -10 -15 -1 -8 -3 -22 -4 -30
-1 -8 -5 -15 -10 -15 -4 0 -7 -3 -6 -7 1 -5 -6 -25 -15 -47 -9 -21 -17 -42
-17 -46 0 -12 -44 -94 -53 -101 -5 -3 -9 -10 -9 -15 -3 -28 -13 -45 -35 -59
-14 -9 -22 -23 -19 -30 3 -8 0 -17 -6 -21 -7 -5 -8 -2 -3 7 4 8 -1 5 -12 -6
-14 -13 -16 -22 -9 -27 6 -4 0 -8 -14 -8 -20 0 -22 -2 -10 -10 13 -9 13 -10 0
-11 -8 -1 -19 0 -25 1 -5 1 -7 -2 -3 -5 12 -12 -12 -47 -28 -41 -8 3 -13 2
-10 -2 2 -4 1 -14 -5 -22 -7 -13 -9 -13 -9 0 -1 8 -6 4 -12 -10 -6 -14 -10
-29 -9 -35 1 -5 -6 -1 -14 9 -14 18 -15 18 -15 2 0 -9 -4 -14 -10 -11 -5 3
-10 1 -10 -5 0 -6 -4 -8 -10 -5 -5 3 -10 1 -10 -5 0 -6 -4 -9 -9 -5 -5 3 -12
1 -16 -5 -4 -6 -11 -8 -16 -5 -5 4 -9 1 -9 -6 0 -7 -3 -9 -6 -6 -4 3 -16 1
-27 -4 -43 -24 -260 -80 -357 -94 -25 -3 -56 -8 -70 -10 -14 -2 -52 -7 -85
-11 -33 -3 -69 -10 -80 -14 -11 -4 -28 -6 -38 -4 -10 1 -14 -2 -11 -8 5 -8 -9
-9 -44 -4 -35 4 -52 3 -52 -4 0 -6 -5 -8 -12 -4 -6 4 -57 9 -112 10 -56 2
-123 5 -151 8 -47 5 -61 7 -125 22 -14 3 -31 6 -37 6 -7 1 -13 5 -13 10 0 5
-4 7 -9 3 -5 -3 -12 -1 -16 5 -4 6 -11 8 -16 5 -5 -4 -9 -1 -9 5 0 7 -7 9 -16
6 -11 -4 -18 1 -21 14 -3 11 -9 17 -14 14 -5 -3 -9 2 -9 11 0 9 -3 14 -7 12
-5 -3 -15 2 -23 11 -13 14 -12 15 5 9 19 -7 19 -6 3 6 -10 8 -14 18 -10 22 4
5 -2 5 -12 1 -15 -5 -17 -4 -7 8 9 11 8 15 -5 20 -9 4 -14 13 -10 21 3 8 2 15
-3 15 -4 0 -8 7 -9 15 -1 8 -3 22 -4 30 -1 8 -5 15 -10 15 -5 0 -6 5 -3 10 3
6 1 10 -5 10 -6 0 -9 4 -6 9 9 15 -5 42 -18 34 -6 -4 -4 2 4 12 12 15 12 17 1
10 -11 -6 -13 -4 -7 11 4 10 4 15 0 11 -4 -4 -15 5 -24 21 -13 20 -15 30 -6
41 9 12 7 13 -8 8 -16 -6 -17 -5 -7 7 9 11 9 16 0 22 -8 5 -9 3 -4 -6 6 -9 4
-11 -4 -5 -9 5 -10 10 -2 18 6 6 11 16 11 21 0 6 -5 4 -10 -4 -7 -11 -10 -11
-10 -2 0 7 -4 11 -9 7 -5 -3 -13 0 -17 6 -4 8 -3 9 4 5 7 -4 12 -2 12 4 0 6 4
9 8 6 5 -3 9 1 9 9 0 8 -4 12 -8 9 -5 -2 -15 9 -24 25 -18 36 -19 45 -3 35 7
-5 8 -3 3 5 -5 9 -11 9 -17 3 -7 -7 -4 -22 9 -45 15 -24 17 -34 7 -34 -7 0
-12 3 -11 6 3 14 -27 79 -35 75 -5 -3 -8 -2 -7 3 5 20 -14 62 -25 56 -6 -3 -8
-2 -3 2 4 5 0 16 -8 25 -14 15 -14 18 -1 23 11 4 13 1 9 -11 -7 -19 -4 -17 17
13 8 11 10 17 6 13 -13 -11 -36 11 -30 27 3 7 0 16 -6 20 -8 5 -7 11 2 23 12
15 11 16 -5 3 -13 -11 -15 -17 -6 -28 7 -7 9 -16 6 -20 -4 -3 -2 -11 3 -18 7
-8 5 -12 -4 -12 -9 0 -13 8 -10 24 3 14 1 22 -4 19 -13 -8 -10 37 3 47 6 5 0
7 -13 4 -12 -3 -20 -1 -16 4 3 5 13 9 22 10 15 0 15 1 -1 8 -10 4 -19 11 -19
16 0 6 -5 16 -11 24 -10 12 -9 13 2 6 11 -6 13 -4 8 7 -3 9 0 21 6 27 6 6 7
11 3 11 -5 0 -2 8 5 17 8 10 9 14 2 10 -6 -4 -15 -2 -19 4 -10 17 -13 102 -3
120 5 10 3 21 -4 29 -8 9 -8 11 -1 7 7 -4 15 0 18 9 4 10 2 13 -7 8 -8 -5 -7
-2 2 9 7 9 10 17 6 17 -4 0 -1 8 6 17 12 14 12 15 1 9 -11 -7 -12 -4 -3 11 6
11 7 23 4 27 -3 3 -1 6 6 6 7 0 10 3 7 8 -8 14 63 153 113 221 65 88 290 306
369 358 127 84 228 108 427 100 l140 -6 48 37 c50 39 137 148 184 230 15 26
31 50 36 53 5 3 8 9 8 13 -3 19 0 27 7 22 5 -3 9 1 9 8 0 30 71 133 142 205
74 77 132 114 216 141 26 8 74 44 135 99 128 117 161 141 197 141 16 0 32 -3
35 -6 3 -3 -13 -44 -37 -92 -54 -110 -61 -131 -41 -128 9 1 19 6 23 11 4 4 2
5 -6 0 -10 -6 -12 -4 -7 4 6 9 12 9 25 -3 15 -14 17 -13 18 7 2 17 0 19 -7 7
-5 -8 -10 -10 -10 -4 0 6 3 13 6 17 8 8 35 -3 29 -13 -3 -4 3 -14 13 -21 9 -7
13 -8 7 -2 -6 7 -8 51 -5 107 l5 96 49 35 c47 33 102 46 119 28z m-16 -115
c-3 -8 -6 -5 -6 6 -1 11 2 17 5 13 3 -3 4 -12 1 -19z m318 -758 c-3 -5 -12
-10 -18 -10 -7 0 -6 4 3 10 19 12 23 12 15 0z m-142 -185 c-3 -9 -8 -14 -10
-11 -3 3 -2 9 2 15 9 16 15 13 8 -4z m-28 -14 c-3 -6 -10 -9 -15 -6 -5 3 -11
1 -15 -5 -4 -6 -11 -8 -16 -5 -5 4 -9 2 -9 -3 0 -14 12 -22 24 -15 17 11 37
12 30 2 -3 -5 -9 -7 -14 -4 -5 3 -11 1 -15 -5 -10 -16 -23 -12 -30 10 -4 11
-11 18 -16 14 -6 -4 -6 -11 2 -20 6 -8 9 -17 5 -21 -3 -3 -6 0 -6 8 -1 10 -3
9 -11 -3 -14 -25 -24 -22 -38 10 -7 15 -9 24 -5 20 4 -4 13 -3 21 3 7 6 13 8
13 4 0 -4 7 -2 15 5 8 7 15 9 15 5 0 -4 6 -3 13 2 6 6 20 9 30 8 9 -2 17 2 17
8 0 5 3 8 6 4 3 -3 3 -11 -1 -16z m-331 -33 c-3 -31 -3 -30 -14 -23 -7 4 -7
13 0 26 14 25 17 24 14 -3z m200 -24 c10 -26 7 -29 -10 -8 -12 15 -15 16 -10
2 2 -9 -2 -22 -10 -28 -8 -7 -14 -9 -14 -4 0 5 -4 3 -9 -4 -7 -11 -9 -10 -14
3 -4 9 -3 13 3 10 6 -3 10 2 11 12 0 16 1 16 9 -2 5 -11 9 -15 10 -10 1 6 3
15 5 20 1 6 3 13 3 18 3 13 20 7 26 -9z m-87 -21 c-4 -3 -3 -11 3 -17 5 -7 5
-17 -2 -26 -8 -12 -9 -12 -4 2 3 10 1 20 -5 23 -9 6 -3 25 8 25 4 0 3 -3 0 -7z
m420 -742 c72 -34 103 -77 84 -117 -6 -13 -15 -24 -21 -24 -6 0 -9 -3 -7 -7 3
-5 -5 -9 -18 -9 -58 -4 -264 -58 -258 -68 5 -7 2 -7 -8 0 -18 15 -64 -1 -53
-17 4 -8 3 -9 -5 -5 -6 4 -9 11 -7 15 6 10 -40 8 -50 -2 -4 -3 2 -5 13 -3 12
3 20 -1 20 -9 0 -8 -5 -11 -11 -7 -18 11 -56 10 -56 -2 0 -6 -5 -3 -11 7 -5 9
-7 23 -4 30 4 6 -1 3 -9 -7 -9 -11 -16 -27 -15 -35 0 -12 3 -11 10 4 8 19 9
19 6 1 -1 -11 -5 -18 -9 -15 -4 2 -14 -5 -22 -16 -8 -11 -18 -17 -22 -12 -4 4
-2 7 5 7 7 0 9 5 6 10 -3 6 -1 10 6 10 7 0 10 3 7 6 -4 3 13 47 37 97 24 51
49 110 56 132 7 22 17 44 21 49 10 13 132 25 198 20 31 -3 81 -17 117 -33z"/>
<path d="M3281 2944 c0 -11 3 -14 6 -6 3 7 2 16 -1 19 -3 4 -6 -2 -5 -13z"/>
<path d="M3230 2839 c0 -5 5 -7 10 -4 6 3 10 8 10 11 0 2 -4 4 -10 4 -5 0 -10
-5 -10 -11z"/>
<path d="M2992 2630 c0 -14 2 -19 5 -12 2 6 2 18 0 25 -3 6 -5 1 -5 -13z"/>
<path d="M3305 2454 c-37 -19 -60 -41 -30 -29 11 5 32 9 48 10 15 1 27 5 26
10 0 4 5 12 13 16 24 16 -25 10 -57 -7z"/>
<path d="M3246 2062 c-2 -4 -1 -14 4 -22 7 -11 9 -9 7 8 -1 24 -3 26 -11 14z"/>
<path d="M3296 2057 c3 -10 9 -15 12 -12 3 3 0 11 -7 18 -10 9 -11 8 -5 -6z"/>
<path d="M3326 2058 c3 -5 10 -6 15 -3 13 9 11 12 -6 12 -8 0 -12 -4 -9 -9z"/>
<path d="M3270 2039 c0 -5 5 -7 10 -4 6 3 10 8 10 11 0 2 -4 4 -10 4 -5 0 -10
-5 -10 -11z"/>
<path d="M3070 2036 c0 -2 8 -10 18 -17 15 -13 16 -12 3 4 -13 16 -21 21 -21
13z"/>
<path d="M2726 1267 c3 -10 9 -15 12 -12 3 3 0 11 -7 18 -10 9 -11 8 -5 -6z"/>
<path d="M1045 1259 c-4 -6 -5 -12 -2 -15 2 -3 7 2 10 11 7 17 1 20 -8 4z"/>
<path d="M2813 1225 c0 -8 4 -12 9 -9 5 3 6 10 3 15 -9 13 -12 11 -12 -6z"/>
<path d="M1045 1219 c-4 -6 -5 -12 -2 -15 2 -3 7 2 10 11 7 17 1 20 -8 4z"/>
<path d="M2746 1160 c1 -41 6 -84 10 -94 4 -12 4 -17 -2 -13 -6 3 -10 -5 -10
-18 0 -13 4 -22 8 -19 4 3 5 -2 2 -10 -3 -9 -9 -14 -13 -11 -4 2 -8 -2 -8 -10
0 -8 3 -12 6 -11 3 2 6 -11 6 -29 0 -18 -3 -31 -7 -29 -4 3 -5 -2 -2 -10 7
-18 34 -10 34 10 0 8 5 14 11 14 8 0 7 5 -1 15 -7 9 -10 18 -6 22 3 3 6 1 6
-5 0 -24 19 -11 29 21 6 17 11 36 11 40 -1 4 6 14 14 23 8 8 12 22 9 31 -4 11
-3 14 5 9 7 -4 15 0 19 11 3 10 13 26 21 36 8 9 10 17 5 17 -6 0 -13 -7 -17
-15 -3 -8 -12 -12 -19 -9 -15 5 -32 -36 -28 -66 1 -12 0 -12 -7 -2 -6 9 -9 3
-10 -18 0 -18 -3 -35 -7 -38 -3 -3 -4 10 -2 29 5 45 34 109 50 109 8 0 9 3 1
8 -6 4 -10 15 -8 25 1 11 0 16 -3 13 -4 -3 -13 0 -21 7 -13 10 -14 9 -7 -3 13
-21 15 -39 5 -45 -5 -3 -7 -12 -4 -20 3 -7 1 -22 -5 -32 -8 -14 -10 -15 -11
-3 0 12 -2 12 -9 2 -8 -13 -7 -42 3 -96 3 -17 1 -23 -8 -20 -8 3 -12 25 -12
65 1 33 -2 63 -6 65 -4 3 -8 22 -9 42 -1 20 -4 48 -9 62 -4 15 -6 -4 -4 -50z
m111 -62 c-3 -8 -6 -5 -6 6 -1 11 2 17 5 13 3 -3 4 -12 1 -19z"/>
<path d="M3275 1139 c-4 -6 -5 -12 -2 -15 2 -3 7 2 10 11 7 17 1 20 -8 4z"/>
<path d="M1053 1055 c0 -6 6 -12 12 -12 6 0 12 6 12 12 0 6 -6 12 -12 12 -6 0
-12 -6 -12 -12z"/>
<path d="M3221 1024 c0 -11 3 -14 6 -6 3 7 2 16 -1 19 -3 4 -6 -2 -5 -13z"/>
<path d="M2723 945 c0 -8 4 -12 9 -9 5 3 6 10 3 15 -9 13 -12 11 -12 -6z"/>
<path d="M1123 889 c-7 -7 -5 -22 8 -50 11 -21 21 -39 23 -39 2 0 10 8 17 18
13 16 13 16 -5 2 -18 -14 -19 -13 -12 5 4 11 4 16 0 12 -12 -12 -32 36 -21 51
12 15 5 16 -10 1z"/>
<path d="M2716 883 c-6 -14 -5 -15 5 -6 7 7 10 15 7 18 -3 3 -9 -2 -12 -12z"/>
<path d="M3345 1989 c-4 -6 -3 -15 3 -21 6 -6 11 -4 15 6 7 18 -9 31 -18 15z"/>
<path d="M3277 977 c-3 -8 1 -14 8 -14 7 0 11 6 8 14 -3 7 -6 13 -8 13 -2 0
-5 -6 -8 -13z"/>
</g>
</svg>
